<svg id="图层_1" data-name="图层 1" xmlns="http://www.w3.org/2000/svg" viewBox="0 0 200 1200"><path d="M75.26,352.07a90.58,90.58,0,0,1,34.21-6.38c53.69,0,90.53,33.5,90.53,71.38C200,462.52,159.47,500,97.89,500,46.84,500,0,465.31,0,405.1c0-67,52.1-134.37,190.53-155.1l2.63,8.37a302.37,302.37,0,0,0-56.84,13.16C100,283.49,53.68,310.21,35.79,366ZM33.16,375.6c-2.11,7.57-2.63,16.74-2.63,27.51,0,47.85,25.79,88.12,77.37,88.12,50,0,63.15-36.69,63.15-63.8,0-29.5-21.58-65.79-77.37-65.79C72.1,361.64,51.05,367.62,33.16,375.6Z"/></svg>