<svg id="图层_1" data-name="图层 1" xmlns="http://www.w3.org/2000/svg" viewBox="0 0 600 1200"><path d="M483.67,213c4.39-6.08,11.36-10.14,17.88-10.14,12.72,0,20.75,10.95,20.75,24.34,0,9.12-5.6,15.21-15.3,21.9v.41c13.49,3,21.06,16.43,21.21,31,0,32.86-27.57,47.86-38.33,47.86-8.94-.2-15.46-7.3-15.46-11.35,0-2.23,3.34-6.7,5-6.7a4.13,4.13,0,0,1,2.58,1.22c3.48,4.46,7.42,7.71,16.21,7.71,10.76,0,21.52-9.74,21.52-31.44,0-27.79-16.67-29.81-21.06-29.81a23.32,23.32,0,0,0-11.06,3.24L486.54,258c15.92-7.1,27.28-15.22,27.28-28.8,0-11.16-5.76-17.85-14.55-17.85-10.3,0-16.06,9.73-18.79,16.43l-2.42-2Z"/></svg>