<svg id="图层_1" data-name="图层 1" xmlns="http://www.w3.org/2000/svg" viewBox="0 0 200 1200"><path d="M34.36,270.19C50.69,258.07,76.61,250,100.85,250c47.32,0,77.18,21.8,77.18,48.47,0,18.17-20.85,30.29-56.91,43.61v.81c50.14,6.06,78.31,32.72,78.88,61.79C200,470.12,97.45,500,57.45,500,24.22,499.61,0,485.46,0,477.39c0-4.46,12.39-13.33,18.58-13.33a22.77,22.77,0,0,1,9.59,2.43c12.95,8.88,27.61,15.34,60.27,15.34,40,0,80-19.39,80-62.6,0-55.33-62-59.37-78.3-59.37-18.6,0-34.36,4.44-41.13,6.46l-3.94-6.46c59.15-14.15,101.4-30.29,101.4-57.36,0-22.21-21.4-35.53-54.08-35.53-38.31,0-59.73,19.39-69.87,32.7l-9-4Z"/></svg>