<svg id="图层_1" data-name="图层 1" xmlns="http://www.w3.org/2000/svg" viewBox="0 0 200 1200"><path d="M83.21,212.31c4.4-6.08,11.37-10.14,17.88-10.14,12.73,0,20.76,11,20.76,24.34,0,9.13-5.61,15.21-15.3,21.9v.41c13.48,3,21.06,16.43,21.21,31,0,32.86-27.58,47.87-38.33,47.87C80.49,327.51,74,320.41,74,316.36c0-2.23,3.33-6.7,5-6.7a4.13,4.13,0,0,1,2.58,1.22c3.48,4.46,7.42,7.71,16.21,7.71,10.76,0,21.51-9.74,21.51-31.44,0-27.78-16.66-29.81-21.06-29.81a23.36,23.36,0,0,0-11.06,3.24l-1.06-3.24c15.91-7.1,27.28-15.21,27.28-28.8,0-11.16-5.76-17.85-14.55-17.85-10.3,0-16.06,9.73-18.79,16.43l-2.42-2Z"/></svg>