<svg id="图层_1" data-name="图层 1" xmlns="http://www.w3.org/2000/svg" viewBox="0 0 200 1200"><path d="M93,254a15.26,15.26,0,0,1,9.14-3.06c14.36,0,24.21,16.08,24.21,34.25,0,21.82-10.84,39.81-27.3,39.81-13.65,0-26.17-16.65-26.17-45.55,0-32.14,13.93-64.48,50.93-74.44l.71,4a53.07,53.07,0,0,0-15.2,6.32c-9.71,5.74-22.09,18.56-26.87,45.35ZM81.78,265.26a90.58,90.58,0,0,0-.7,13.21c0,23,6.89,42.29,20.68,42.29,13.37,0,16.89-17.61,16.89-30.62,0-14.16-5.77-31.57-20.69-31.57C92.19,258.57,86.57,261.44,81.78,265.26Z"/></svg>