<svg id="图层_1" data-name="图层 1" xmlns="http://www.w3.org/2000/svg" viewBox="0 0 600 1200"><path d="M493.6,252.37a15.08,15.08,0,0,1,9.16-3.13c14.37,0,24.24,16.44,24.24,35C527,306.6,516.15,325,499.66,325c-13.68,0-26.22-17-26.22-46.59,0-32.89,13.95-66,51-76.15l.71,4.11A52.22,52.22,0,0,0,510,212.83c-9.73,5.87-22.13,19-26.93,46.39Zm-11.28,11.55a94.67,94.67,0,0,0-.7,13.51c0,23.49,6.9,43.26,20.71,43.26,13.39,0,16.92-18,16.92-31.32,0-14.48-5.78-32.3-20.72-32.3C492.75,257.07,487.11,260,482.32,263.92Z"/></svg>