<svg id="图层_1" data-name="图层 1" xmlns="http://www.w3.org/2000/svg" viewBox="0 0 600 1200"><path d="M93.18,255.68a15.24,15.24,0,0,1,9.15-3.07c14.35,0,24.2,16.08,24.2,34.26,0,21.81-10.84,39.8-27.3,39.8-13.65,0-26.17-16.65-26.17-45.54C73.06,249,87,216.64,124,206.69l.71,4A52.75,52.75,0,0,0,109.5,217c-9.71,5.74-22.09,18.56-26.87,45.35ZM81.92,267a90.35,90.35,0,0,0-.7,13.2c0,23,6.9,42.29,20.68,42.29,13.37,0,16.89-17.6,16.89-30.62,0-14.16-5.77-31.57-20.68-31.57C92.34,260.27,86.71,263.14,81.92,267Z"/></svg>