<svg id="图层_1" data-name="图层 1" xmlns="http://www.w3.org/2000/svg" viewBox="0 0 600 1200"><path d="M172,393.82C204.22,369.91,255.27,354,303,354c93.22,0,152,43,152,95.64C455,485.48,414,509.39,343,535.69v1.59c98.76,12,154.25,64.56,155.36,122,0,129.12-202,188.1-280.77,188.1-65.48-.8-113.2-28.7-113.2-44.64,0-8.76,24.42-26.3,36.63-26.3a45.21,45.21,0,0,1,18.86,4.78c25.53,17.54,54.38,30.29,118.75,30.29,78.79,0,157.59-38.26,157.59-123.54,0-109.19-122.08-117.16-154.26-117.16-36.62,0-67.7,8.77-81,12.75l-7.76-12.75C309.65,542.86,392.88,511,392.88,457.58c0-43.84-42.17-70.14-106.53-70.14-75.47,0-117.64,38.26-137.61,64.56L131,444Z"/></svg>