<svg id="图层_1" data-name="图层 1" xmlns="http://www.w3.org/2000/svg" viewBox="0 0 600 1200"><path d="M251.52,555.32c22-8.59,44-12.49,68.16-12.49,107,0,180.34,65.62,180.34,139.84,0,89.06-80.73,162.49-203.41,162.49-101.71,0-195-68-195-185.93C101.58,528,205.39,396,481.15,355.33l5.24,16.4C448.65,376.42,412,385,373.15,397.52,300.8,421,208.53,473.29,172.88,582.67Zm-83.88,46.1c-4.19,14.84-5.24,32.81-5.24,53.9C162.4,749.07,213.78,828,316.53,828c99.61,0,125.82-71.88,125.82-125,0-57.81-43-128.91-154.13-128.91C245.23,574.07,203.29,585.79,167.64,601.42Z"/></svg>